<?xml version="1.0" encoding="UTF-8"?>
<svg width="32" height="32" viewBox="0 0 32 32" fill="none" xmlns="http://www.w3.org/2000/svg">
    <rect width="32" height="32" rx="8" fill="#2563eb"/>
    <path d="M16 8C15.4 8 14.85 8.2 14.4 8.6L8.6 14.4C7.8 15.2 7.8 16.4 8.6 17.2L14.4 23C15.2 23.8 16.4 23.8 17.2 23L23 17.2C23.8 16.4 23.8 15.2 23 14.4L17.2 8.6C16.75 8.2 16.4 8 16 8ZM16 10.4L21.6 16L16 21.6L10.4 16L16 10.4Z" fill="white"/>
    <path d="M16 14C15.7 14 15.5 14.1 15.3 14.3C15.1 14.5 15 14.7 15 15V16H14C13.7 16 13.5 16.1 13.3 16.3C13.1 16.5 13 16.7 13 17C13 17.3 13.1 17.5 13.3 17.7C13.5 17.9 13.7 18 14 18H15V19C15 19.3 15.1 19.5 15.3 19.7C15.5 19.9 15.7 20 16 20C16.3 20 16.5 19.9 16.7 19.7C16.9 19.5 17 19.3 17 19V18H18C18.3 18 18.5 17.9 18.7 17.7C18.9 17.5 19 17.3 19 17C19 16.7 18.9 16.5 18.7 16.3C18.5 16.1 18.3 16 18 16H17V15C17 14.7 16.9 14.5 16.7 14.3C16.5 14.1 16.3 14 16 14Z" fill="white"/>
</svg>
